<svg xmlns="http://www.w3.org/2000/svg" version="1.1" xmlns:xlink="http://www.w3.org/1999/xlink" xmlns:svgjs="http://svgjs.dev/svgjs" width="500" height="500" preserveAspectRatio="none" viewBox="0 0 500 500"><g mask="url(&quot;#SvgjsMask1006&quot;)" fill="none"><rect width="500" height="500" x="0" y="0" fill="rgba(39, 39, 42, 1)"></rect><path d="M0 0L63.79 0L0 166.18z" fill="rgba(255, 255, 255, .1)"></path><path d="M0 166.18L63.79 0L95.6 0L0 301.53z" fill="rgba(255, 255, 255, .075)"></path><path d="M0 301.53L95.6 0L107.14999999999999 0L0 417.89z" fill="rgba(255, 255, 255, .05)"></path><path d="M0 417.89L107.14999999999999 0L309.87 0L0 441.96z" fill="rgba(255, 255, 255, .025)"></path><path d="M500 500L424.99 500L500 443.42z" fill="rgba(0, 0, 0, .1)"></path><path d="M500 443.42L424.99 500L396 500L500 223.70000000000002z" fill="rgba(0, 0, 0, .075)"></path><path d="M500 223.7L396 500L296.99 500L500 138.87z" fill="rgba(0, 0, 0, .05)"></path><path d="M500 138.87L296.99 500L134.09 500L500 94.30000000000001z" fill="rgba(0, 0, 0, .025)"></path></g><defs><mask id="SvgjsMask1006"><rect width="500" height="500" fill="#ffffff"></rect></mask></defs></svg>