<!--?xml version="1.0" standalone="no"?-->
              <svg id="sw-js-blob-svg" viewBox="0 0 100 100" xmlns="http://www.w3.org/2000/svg" version="1.1">
                    <defs> 
                        <linearGradient id="sw-gradient" x1="0" x2="1" y1="1" y2="0">
                            <stop id="stop1" stop-color="rgba(29, 29, 32, 1)" offset="0%"></stop>
                            <stop id="stop2" stop-color="rgba(29, 29, 32, 1)" offset="100%"></stop>
                        </linearGradient>
                    </defs>
                <path fill="url(#sw-gradient)" d="M20.7,-35.5C26.8,-32.4,31.7,-26.8,35.4,-20.4C39.1,-14.1,41.6,-7,41.1,-0.3C40.6,6.4,37,12.9,33.6,19.8C30.3,26.7,27.1,34.1,21.6,38.9C16,43.8,8,46,0.2,45.7C-7.7,45.4,-15.3,42.6,-21,37.8C-26.6,33.1,-30.2,26.3,-33.9,19.7C-37.6,13,-41.4,6.5,-41.1,0.1C-40.9,-6.3,-36.8,-12.6,-32.6,-18.3C-28.3,-24,-24.1,-29.1,-18.6,-32.6C-13.2,-36,-6.6,-37.8,0.4,-38.4C7.3,-39,14.6,-38.5,20.7,-35.5Z" width="100%" height="100%" transform="translate(50 50)" stroke-width="0" style="transition: 0.3s;" stroke="url(#sw-gradient)"></path>
              </svg>