<svg xmlns="http://www.w3.org/2000/svg" version="1.1" xmlns:xlink="http://www.w3.org/1999/xlink" xmlns:svgjs="http://svgjs.dev/svgjs" width="1920" height="1080" preserveAspectRatio="none" viewBox="0 0 1920 1080"><g mask="url(&quot;#SvgjsMask1330&quot;)" fill="none"><rect width="1920" height="1080" x="0" y="0" fill="rgba(39, 39, 42, 1)"></rect><path d="M0,664.695C138.445,668.416,278.528,686.133,405.694,631.272C545.843,570.809,686.215,481.176,748.445,341.803C810.54,202.734,751.276,45.762,734.727,-105.638C717.534,-262.931,729.851,-426.503,649.562,-562.849C560.943,-713.341,434.404,-859.952,265.16,-903.052C97.131,-945.843,-74.537,-861.599,-231.122,-787.128C-369.37,-721.378,-479.624,-618.153,-578.9,-501.62C-677.433,-385.96,-759.899,-261.109,-803.296,-115.497C-852.091,48.226,-927.443,236.456,-843.161,385.059C-758.545,534.251,-554.715,555.844,-391.918,609.836C-264.123,652.22,-134.591,661.078,0,664.695" fill="#1d1d20"></path><path d="M1920 1718.5720000000001C2037.484 1715.0549999999998 2114.449 1597.885 2203.5969999999998 1521.285 2280.548 1455.165 2358.815 1391.811 2405.264 1301.612 2453.266 1208.397 2489.364 1104.027 2471.687 1000.679 2454.197 898.422 2386.494 812.053 2309.614 742.3969999999999 2238.506 677.971 2141.945 661.643 2054.324 622.534 1950.554 576.2180000000001 1854.807 454.95399999999995 1747.157 491.352 1638.314 528.153 1657.3600000000001 700.575 1577.941 783.604 1491.755 873.707 1301.9099999999999 865.681 1273.0720000000001 986.986 1245.08 1104.733 1392.103 1189.328 1457.2359999999999 1291.337 1511.973 1377.064 1550.5439999999999 1469.6019999999999 1625.277 1538.597 1711.602 1618.2939999999999 1802.564 1722.087 1920 1718.5720000000001" fill="#313135"></path></g><defs><mask id="SvgjsMask1330"><rect width="1920" height="1080" fill="#ffffff"></rect></mask></defs></svg>